{
	"asset":{
		"generator":"Khronos glTF Blender I/O v4.0.44",
		"version":"2.0"
	},
	"extensionsUsed":[
		"KHR_materials_specular",
		"KHR_materials_ior"
	],
	"scene":0,
	"scenes":[
		{
			"name":"Scene",
			"nodes":[
				0
			]
		}
	],
	"nodes":[
		{
			"mesh":0,
			"name":"Roads.005",
			"rotation":[
				-0.7071068286895752,
				0,
				0.7071068286895752,
				4.216080373709019e-09
			],
			"scale":[
				-36.97430419921875,
				-0.15083080530166626,
				-4.507111072540283
			],
			"translation":[
				0.46649169921875,
				-0.12395485490560532,
				-231.34722900390625
			]
		}
	],
	"materials":[
		{
			"doubleSided":true,
			"extensions":{
				"KHR_materials_specular":{
					"specularFactor":0
				},
				"KHR_materials_ior":{
					"ior":1.4500000476837158
				}
			},
			"name":"asphalt",
			"pbrMetallicRoughness":{
				"baseColorFactor":[
					0.021979155018925667,
					0.021979155018925667,
					0.021979155018925667,
					1
				],
				"metallicFactor":0,
				"roughnessFactor":0.5
			}
		},
		{
			"doubleSided":true,
			"extensions":{
				"KHR_materials_specular":{
					"specularFactor":0
				},
				"KHR_materials_ior":{
					"ior":1.4500000476837158
				}
			},
			"name":"Dark Concrete",
			"pbrMetallicRoughness":{
				"baseColorFactor":[
					0.2597990036010742,
					0.2597990036010742,
					0.2597990036010742,
					1
				],
				"metallicFactor":0,
				"roughnessFactor":0.5
			}
		},
		{
			"doubleSided":true,
			"extensions":{
				"KHR_materials_specular":{
					"specularFactor":0
				},
				"KHR_materials_ior":{
					"ior":1.4500000476837158
				}
			},
			"name":"street lines",
			"pbrMetallicRoughness":{
				"metallicFactor":0,
				"roughnessFactor":0.5
			}
		},
		{
			"doubleSided":true,
			"name":"street lines yellow",
			"pbrMetallicRoughness":{
				"baseColorFactor":[
					0.8000000715255737,
					0.6955313086509705,
					0.04293302819132805,
					1
				],
				"metallicFactor":0,
				"roughnessFactor":0.5
			}
		}
	],
	"meshes":[
		{
			"name":"Cube.062",
			"primitives":[
				{
					"attributes":{
						"POSITION":0,
						"NORMAL":1
					},
					"indices":2,
					"material":0
				},
				{
					"attributes":{
						"POSITION":3,
						"NORMAL":4
					},
					"indices":5,
					"material":1
				},
				{
					"attributes":{
						"POSITION":6,
						"NORMAL":7
					},
					"indices":8,
					"material":2
				},
				{
					"attributes":{
						"POSITION":9,
						"NORMAL":10
					},
					"indices":11,
					"material":3
				}
			]
		}
	],
	"accessors":[
		{
			"bufferView":0,
			"componentType":5126,
			"count":6944,
			"max":[
				14.551366806030273,
				1.6185667514801025,
				53.84771728515625
			],
			"min":[
				-1.9552117586135864,
				-1.322932481765747,
				-54.10524368286133
			],
			"type":"VEC3"
		},
		{
			"bufferView":1,
			"componentType":5126,
			"count":6944,
			"type":"VEC3"
		},
		{
			"bufferView":2,
			"componentType":5123,
			"count":14400,
			"type":"SCALAR"
		},
		{
			"bufferView":3,
			"componentType":5126,
			"count":12134,
			"max":[
				14.551366806030273,
				1.6196295022964478,
				53.84771728515625
			],
			"min":[
				-1.9552117586135864,
				-1.322932481765747,
				-54.10524368286133
			],
			"type":"VEC3"
		},
		{
			"bufferView":4,
			"componentType":5126,
			"count":12134,
			"type":"VEC3"
		},
		{
			"bufferView":5,
			"componentType":5123,
			"count":21228,
			"type":"SCALAR"
		},
		{
			"bufferView":6,
			"componentType":5126,
			"count":3104,
			"max":[
				12.429915428161621,
				1.6185672283172607,
				36.53910827636719
			],
			"min":[
				0.16623932123184204,
				0.6770727038383484,
				-36.79663848876953
			],
			"type":"VEC3"
		},
		{
			"bufferView":7,
			"componentType":5126,
			"count":3104,
			"type":"VEC3"
		},
		{
			"bufferView":8,
			"componentType":5123,
			"count":4656,
			"type":"SCALAR"
		},
		{
			"bufferView":9,
			"componentType":5126,
			"count":1576,
			"max":[
				14.551366806030273,
				0.7324302792549133,
				53.84770965576172
			],
			"min":[
				-1.9552117586135864,
				-1.322898507118225,
				-54.10523986816406
			],
			"type":"VEC3"
		},
		{
			"bufferView":10,
			"componentType":5126,
			"count":1576,
			"type":"VEC3"
		},
		{
			"bufferView":11,
			"componentType":5123,
			"count":2832,
			"type":"SCALAR"
		}
	],
	"bufferViews":[
		{
			"buffer":0,
			"byteLength":83328,
			"byteOffset":0,
			"target":34962
		},
		{
			"buffer":0,
			"byteLength":83328,
			"byteOffset":83328,
			"target":34962
		},
		{
			"buffer":0,
			"byteLength":28800,
			"byteOffset":166656,
			"target":34963
		},
		{
			"buffer":0,
			"byteLength":145608,
			"byteOffset":195456,
			"target":34962
		},
		{
			"buffer":0,
			"byteLength":145608,
			"byteOffset":341064,
			"target":34962
		},
		{
			"buffer":0,
			"byteLength":42456,
			"byteOffset":486672,
			"target":34963
		},
		{
			"buffer":0,
			"byteLength":37248,
			"byteOffset":529128,
			"target":34962
		},
		{
			"buffer":0,
			"byteLength":37248,
			"byteOffset":566376,
			"target":34962
		},
		{
			"buffer":0,
			"byteLength":9312,
			"byteOffset":603624,
			"target":34963
		},
		{
			"buffer":0,
			"byteLength":18912,
			"byteOffset":612936,
			"target":34962
		},
		{
			"buffer":0,
			"byteLength":18912,
			"byteOffset":631848,
			"target":34962
		},
		{
			"buffer":0,
			"byteLength":5664,
			"byteOffset":650760,
			"target":34963
		}
	],
	"buffers":[
		{
			"byteLength":656424,
			"uri":"roads.bin"
		}
	]
}
